<?xml version="1.0" encoding="UTF-8"?>
<svg id="Layer_1" xmlns="http://www.w3.org/2000/svg" version="1.1" viewBox="0 0 408 408">
  <path fill="#ffffff" d="M366.11,201.95c-17.95-55.83-97.67-75.34-142.72-40.6-11.45,9.15-17.01,24.59-11.09,38.54,4.35,10.33,14.37,14.95,24.87,16.81,9.77,1.7,19.81,1.7,29.53,3.64,17.84,3.06,34.56,11.76,46.89,25.2,8.28,8.62,14.08,19.29,22.95,27.4,6.28,5.61,14.32,9.32,22.02,5.76,20.52-9.75,13.16-58.26,7.61-76.56l-.06-.18Z"/>
  <path fill="#ffffff" d="M236.68,282.46c-16.52-61.66-122.31-62.61-146.95-5.14-10.43,23.6-4.52,52.51,13.55,70.84,13.07,13.51,34.18,23.62,53.14,20.76,6.93-1.12,15.81-6.08,14.27-13.38-3.52-12.95-19.66-20.46-28.5-29.97-12.03-11.95-15.87-28.43-1.37-40.02,12.6-10.08,31.09-9.1,44.91-1.64,8.48,4.43,16.32,11.47,23.99,16.74,17.29,12.51,30.99,3.07,27-17.98l-.04-.2Z"/>
  <path fill="#ffffff" d="M175.03,87.23c.12,36.91-38.45,61.77-72.01,46.91-19.65-8.38-32.36-29.62-30.48-50.92,1.79-28.2,27.67-49.9,55.49-47.23,26.28,1.91,47.22,24.83,47,51.04v.2Z"/>
  <path fill="#ffffff" d="M328.39,87.23c.12,36.91-38.45,61.77-72.01,46.91-19.65-8.38-32.36-29.62-30.48-50.92,1.79-28.2,27.67-49.9,55.49-47.23,26.28,1.91,47.22,24.83,47,51.04v.2Z"/>
  <path fill="#ffffff" d="M41.89,201.95c17.95-55.83,97.67-75.34,142.72-40.6,11.45,9.15,17.01,24.59,11.09,38.54-4.35,10.33-14.37,14.95-24.87,16.81-9.77,1.7-19.81,1.7-29.53,3.64-17.84,3.06-34.56,11.76-46.89,25.2-8.28,8.62-14.08,19.29-22.95,27.4-6.28,5.61-14.32,9.32-22.02,5.76-20.52-9.75-13.16-58.26-7.61-76.56l.06-.18Z"/>
  <path fill="#ffffff" d="M166.84,322.12c16.52,61.66,122.31,62.61,146.95,5.14,10.43-23.6,4.52-52.51-13.55-70.84-13.07-13.51-34.18-23.62-53.14-20.76-6.93,1.12-15.81,6.08-14.27,13.38,3.52,12.95,19.66,20.46,28.5,29.97,12.03,11.95,15.87,28.43,1.37,40.02-12.6,10.08-31.09,9.1-44.91,1.64-8.48-4.43-16.32-11.47-23.99-16.74-17.29-12.51-30.99-3.07-27,17.98l.04.2Z"/>
</svg>