<?xml version="1.0" encoding="UTF-8"?>
<!DOCTYPE svg PUBLIC "-//W3C//DTD SVG 1.1//EN" "http://www.w3.org/Graphics/SVG/1.1/DTD/svg11.dtd">
<svg xmlns="http://www.w3.org/2000/svg" version="1.1" width="408px" height="612px" style="shape-rendering:geometricPrecision; text-rendering:geometricPrecision; image-rendering:optimizeQuality; fill-rule:evenodd; clip-rule:evenodd" xmlns:xlink="http://www.w3.org/1999/xlink">
<g><path style="opacity:1" fill="#0d5fb0" d="M 258.5,170.5 C 261.529,172.075 264.862,173.241 268.5,174C 268.193,175.682 267.86,177.348 267.5,179C 267.613,180.28 268.28,181.113 269.5,181.5C 270.167,184.977 270.834,188.311 271.5,191.5C 281.015,191.173 290.348,191.506 299.5,192.5C 302.241,195.204 305.574,196.87 309.5,197.5C 311.341,198.402 312.674,199.736 313.5,201.5C 309.709,199.679 305.876,198.013 302,196.5C 300.691,198.891 299.691,198.891 299,196.5C 294.671,197.633 290.504,199.133 286.5,201C 290.239,201.319 293.906,200.819 297.5,199.5C 307.227,201.986 311.06,207.986 309,217.5C 307.167,214.667 305.667,214.833 304.5,218C 307.167,219 309.833,220 312.5,221C 311.833,222 311.167,223 310.5,224C 308.5,224 306.5,224 304.5,224C 306.657,225.085 306.824,226.251 305,227.5C 304.333,224.833 303.667,224.833 303,227.5C 301.326,226.324 299.826,224.99 298.5,223.5C 296.812,225.029 295.479,226.863 294.5,229C 297.851,229.057 300.851,229.891 303.5,231.5C 236.833,231.5 170.167,231.5 103.5,231.5C 103.5,232.5 103.5,233.5 103.5,234.5C 103.234,249.196 103.567,263.862 104.5,278.5C 103.337,303.663 103.17,328.997 104,354.5C 106.778,359.812 110.944,363.645 116.5,366C 123.856,366.169 131.189,366.669 138.5,367.5C 138.942,368.739 139.609,369.739 140.5,370.5C 140.5,374.167 140.5,377.833 140.5,381.5C 130.14,381.704 119.806,381.371 109.5,380.5C 109.167,380.5 108.833,380.5 108.5,380.5C 105.868,376.992 102.534,374.158 98.5,372C 98.8333,371.667 99.1667,371.333 99.5,371C 98.552,370.517 97.552,370.351 96.5,370.5C 96.5,369.5 96.5,368.5 96.5,367.5C 93.234,367.567 91.734,365.901 92,362.5C 91.3292,361.748 90.4959,361.414 89.5,361.5C 88.0762,359.485 87.4095,357.152 87.5,354.5C 87.5,309.167 87.5,263.833 87.5,218.5C 88.3173,215.521 89.1506,212.521 90,209.5C 92.1346,207.633 93.6346,205.3 94.5,202.5C 96.8559,200.362 99.1893,198.362 101.5,196.5C 113.551,196.047 125.551,195.213 137.5,194C 138.312,187.915 138.812,181.748 139,175.5C 142.118,172.337 145.785,171.67 150,173.5C 153.498,176.164 154.998,179.831 154.5,184.5C 154.438,187.613 153.771,190.446 152.5,193C 153.529,194.698 155.029,195.532 157,195.5C 188.65,194.851 220.15,194.185 251.5,193.5C 252.5,193.5 253.5,193.5 254.5,193.5C 253.96,186.591 254.627,179.924 256.5,173.5C 256.833,172.833 257.167,172.167 257.5,171.5C 257.5,170.833 257.833,170.5 258.5,170.5 Z"/></g>
<g><path style="opacity:0.282" fill="#9cbcd6" d="M 257.5,171.5 C 257.167,172.167 256.833,172.833 256.5,173.5C 255.833,173.833 255.167,174.167 254.5,174.5C 254.5,172.5 255.5,171.5 257.5,171.5 Z"/></g>
<g><path style="opacity:1" fill="#3d6eaa" d="M 258.5,170.5 C 267.762,169.093 272.428,173.093 272.5,182.5C 271.593,185.421 271.26,188.421 271.5,191.5C 270.834,188.311 270.167,184.977 269.5,181.5C 268.28,181.113 267.613,180.28 267.5,179C 267.86,177.348 268.193,175.682 268.5,174C 264.862,173.241 261.529,172.075 258.5,170.5 Z"/></g>
<g><path style="opacity:0.067" fill="#84abd1" d="M 137.5,174.5 C 136.759,180.471 136.425,186.471 136.5,192.5C 134.833,192.5 133.167,192.5 131.5,192.5C 124.167,192.5 116.833,192.5 109.5,192.5C 117.984,191.507 126.651,191.174 135.5,191.5C 135.334,186.821 135.501,182.155 136,177.5C 136.232,176.263 136.732,175.263 137.5,174.5 Z"/></g>
<g><path style="opacity:0.071" fill="#c7e9ff" d="M 155.5,187.5 C 156.434,188.568 156.768,189.901 156.5,191.5C 188.5,191.5 220.5,191.5 252.5,191.5C 221.338,192.498 190.004,192.832 158.5,192.5C 157.5,192.5 156.5,192.5 155.5,192.5C 155.5,190.833 155.5,189.167 155.5,187.5 Z"/></g>
<g><path style="opacity:0.628" fill="#356395" d="M 109.5,192.5 C 116.833,192.5 124.167,192.5 131.5,192.5C 121.607,193.168 111.607,194.168 101.5,195.5C 103.684,193.415 106.351,192.415 109.5,192.5 Z"/></g>
<g><path style="opacity:0.671" fill="#316499" d="M 256.5,173.5 C 254.627,179.924 253.96,186.591 254.5,193.5C 253.5,193.5 252.5,193.5 251.5,193.5C 220.329,193.831 189.329,193.498 158.5,192.5C 190.004,192.832 221.338,192.498 252.5,191.5C 251.393,186.919 251.227,182.252 252,177.5C 252.377,176.058 253.21,175.058 254.5,174.5C 255.167,174.167 255.833,173.833 256.5,173.5 Z"/></g>
<g><path style="opacity:1" fill="#2b61a2" d="M 155.5,187.5 C 155.5,189.167 155.5,190.833 155.5,192.5C 156.5,192.5 157.5,192.5 158.5,192.5C 189.329,193.498 220.329,193.831 251.5,193.5C 220.15,194.185 188.65,194.851 157,195.5C 155.029,195.532 153.529,194.698 152.5,193C 153.771,190.446 154.438,187.613 154.5,184.5C 154.998,179.831 153.498,176.164 150,173.5C 145.785,171.67 142.118,172.337 139,175.5C 138.812,181.748 138.312,187.915 137.5,194C 125.551,195.213 113.551,196.047 101.5,196.5C 101.5,196.167 101.5,195.833 101.5,195.5C 111.607,194.168 121.607,193.168 131.5,192.5C 133.167,192.5 134.833,192.5 136.5,192.5C 136.425,186.471 136.759,180.471 137.5,174.5C 141.36,169.77 146.027,168.77 151.5,171.5C 156.227,175.99 157.561,181.323 155.5,187.5 Z"/></g>
<g><path style="opacity:0.275" fill="#618bbb" d="M 299.5,192.5 C 303.322,193.354 306.656,195.021 309.5,197.5C 305.574,196.87 302.241,195.204 299.5,192.5 Z"/></g>
<g><path style="opacity:1" fill="#517cb3" d="M 101.5,195.5 C 101.5,195.833 101.5,196.167 101.5,196.5C 99.1893,198.362 96.8559,200.362 94.5,202.5C 93.6346,205.3 92.1346,207.633 90,209.5C 89.1506,212.521 88.3173,215.521 87.5,218.5C 87.1667,218.5 86.8333,218.5 86.5,218.5C 87.1806,207.853 92.1806,200.187 101.5,195.5 Z"/></g>
<g><path style="opacity:1" fill="#0d5eb0" d="M 313.5,201.5 C 316.786,204.4 318.786,208.067 319.5,212.5C 319.667,258.835 319.5,305.168 319,351.5C 317.383,355.306 316.55,359.306 316.5,363.5C 315.194,364.467 314.527,365.801 314.5,367.5C 313.448,367.351 312.448,367.517 311.5,368C 312.337,369.011 312.67,370.178 312.5,371.5C 310.159,371.992 308.159,373.159 306.5,375C 305.207,375.49 303.873,375.657 302.5,375.5C 302.5,376.5 302.5,377.5 302.5,378.5C 300.801,378.34 299.134,378.506 297.5,379C 295.242,379.876 293.242,381.043 291.5,382.5C 283.5,382.5 275.5,382.5 267.5,382.5C 267.833,377.167 268.167,371.833 268.5,366.5C 276.917,366.906 285.251,366.406 293.5,365C 294.252,364.329 294.586,363.496 294.5,362.5C 297.209,359.792 299.542,356.792 301.5,353.5C 302.458,353.047 303.292,352.381 304,351.5C 304.831,311.331 304.665,271.331 303.5,231.5C 300.851,229.891 297.851,229.057 294.5,229C 295.479,226.863 296.812,225.029 298.5,223.5C 299.826,224.99 301.326,226.324 303,227.5C 303.667,224.833 304.333,224.833 305,227.5C 306.824,226.251 306.657,225.085 304.5,224C 306.5,224 308.5,224 310.5,224C 311.167,223 311.833,222 312.5,221C 309.833,220 307.167,219 304.5,218C 305.667,214.833 307.167,214.667 309,217.5C 311.06,207.986 307.227,201.986 297.5,199.5C 293.906,200.819 290.239,201.319 286.5,201C 290.504,199.133 294.671,197.633 299,196.5C 299.691,198.891 300.691,198.891 302,196.5C 305.876,198.013 309.709,199.679 313.5,201.5 Z"/></g>
<g><path style="opacity:0.208" fill="#759abd" d="M 303.5,231.5 C 303.832,271.337 303.499,311.004 302.5,350.5C 302.5,311.167 302.5,271.833 302.5,232.5C 236.158,231.837 170.158,232.503 104.5,234.5C 104.167,234.5 103.833,234.5 103.5,234.5C 103.5,233.5 103.5,232.5 103.5,231.5C 170.167,231.5 236.833,231.5 303.5,231.5 Z"/></g>
<g><path style="opacity:0.298" fill="#5472a5" d="M 103.5,234.5 C 103.833,234.5 104.167,234.5 104.5,234.5C 104.528,249.818 104.528,264.818 104.5,279.5C 104.5,279.167 104.5,278.833 104.5,278.5C 103.567,263.862 103.234,249.196 103.5,234.5 Z"/></g>
<g><path style="opacity:1" fill="#53b477" d="M 258.5,255.5 C 255.196,254.672 252.196,253.172 249.5,251C 242.508,250.5 235.508,250.334 228.5,250.5C 234.058,247.614 240.058,246.781 246.5,248C 248.957,249.562 251.624,250.562 254.5,251C 255.699,252.694 257.032,254.194 258.5,255.5 Z"/></g>
<g><path style="opacity:0.6" fill="#e3a164" d="M 184.5,253.5 C 178.924,251.546 173.257,249.88 167.5,248.5C 162.512,249.941 157.512,251.274 152.5,252.5C 156.938,248.966 162.105,247.299 168,247.5C 174.417,247.248 179.917,249.248 184.5,253.5 Z"/></g>
<g><path style="opacity:1" fill="#2cb35c" d="M 228.5,250.5 C 235.508,250.334 242.508,250.5 249.5,251C 252.196,253.172 255.196,254.672 258.5,255.5C 261.164,257.484 262.831,260.151 263.5,263.5C 263.848,270.955 263.182,278.288 261.5,285.5C 259.5,288.167 257.167,290.5 254.5,292.5C 253.122,291.766 251.622,291.099 250,290.5C 249.801,292.402 248.967,293.902 247.5,295C 242.833,295.667 238.167,295.667 233.5,295C 230.965,294.072 229.965,292.238 230.5,289.5C 227.391,289.345 224.391,288.678 221.5,287.5C 220.812,283.791 219.312,280.457 217,277.5C 215.009,266.496 218.676,258.163 228,252.5C 228.464,251.906 228.631,251.239 228.5,250.5 Z"/></g>
<g><path style="opacity:1" fill="#f18a2d" d="M 184.5,253.5 C 185.373,257.931 187.706,261.264 191.5,263.5C 191.5,263.833 191.5,264.167 191.5,264.5C 191.666,268.514 191.499,272.514 191,276.5C 190.01,279.955 188.844,283.288 187.5,286.5C 186.127,286.343 184.793,286.51 183.5,287C 184.8,288.579 184.466,289.745 182.5,290.5C 180.94,290.481 179.44,290.148 178,289.5C 176.174,290.01 176.007,290.844 177.5,292C 175.22,293.936 172.553,294.769 169.5,294.5C 164.944,293.23 160.277,292.564 155.5,292.5C 146.338,285.485 142.672,276.152 144.5,264.5C 146.899,260.729 149.566,257.062 152.5,253.5C 152.5,253.167 152.5,252.833 152.5,252.5C 157.512,251.274 162.512,249.941 167.5,248.5C 173.257,249.88 178.924,251.546 184.5,253.5 Z"/></g>
<g><path style="opacity:0.38" fill="#e6af79" d="M 152.5,253.5 C 149.566,257.062 146.899,260.729 144.5,264.5C 144.343,263.127 144.51,261.793 145,260.5C 146.736,257.261 149.236,254.927 152.5,253.5 Z"/></g>
<g><path style="opacity:0.859" fill="#e7ae72" d="M 184.5,253.5 C 187.815,256.125 190.149,259.458 191.5,263.5C 187.706,261.264 185.373,257.931 184.5,253.5 Z"/></g>
<g><path style="opacity:0.594" fill="#6bbc88" d="M 263.5,263.5 C 266.407,271.102 265.74,278.435 261.5,285.5C 263.182,278.288 263.848,270.955 263.5,263.5 Z"/></g>
<g><path style="opacity:0.672" fill="#1b5793" d="M 303.5,231.5 C 304.665,271.331 304.831,311.331 304,351.5C 303.292,352.381 302.458,353.047 301.5,353.5C 301.557,352.391 301.89,351.391 302.5,350.5C 303.499,311.004 303.832,271.337 303.5,231.5 Z"/></g>
<g><path style="opacity:0.514" fill="#e3a76a" d="M 144.5,264.5 C 142.672,276.152 146.338,285.485 155.5,292.5C 155.833,293.167 156.167,293.833 156.5,294.5C 152.572,292.078 149.072,289.078 146,285.5C 144.205,280.987 143.038,276.32 142.5,271.5C 142.44,268.845 143.107,266.511 144.5,264.5 Z"/></g>
<g><path style="opacity:0.235" fill="#4e73a1" d="M 86.5,218.5 C 86.8333,218.5 87.1667,218.5 87.5,218.5C 87.5,263.833 87.5,309.167 87.5,354.5C 86.737,319.165 86.0704,283.665 85.5,248C 86.2408,237.74 86.5741,227.907 86.5,218.5 Z"/></g>
<g><path style="opacity:0.47" fill="#5c83b6" d="M 319.5,212.5 C 320.268,213.263 320.768,214.263 321,215.5C 321.667,261.833 321.667,308.167 321,354.5C 320.1,357.718 318.933,360.718 317.5,363.5C 317.167,363.5 316.833,363.5 316.5,363.5C 316.55,359.306 317.383,355.306 319,351.5C 319.5,305.168 319.667,258.835 319.5,212.5 Z"/></g>
<g><path style="opacity:0.678" fill="#e4a870" d="M 191.5,264.5 C 195.648,279.001 190.981,289.334 177.5,295.5C 176.833,295.5 176.167,295.5 175.5,295.5C 178.086,294.054 180.42,292.387 182.5,290.5C 184.466,289.745 184.8,288.579 183.5,287C 184.793,286.51 186.127,286.343 187.5,286.5C 188.844,283.288 190.01,279.955 191,276.5C 191.499,272.514 191.666,268.514 191.5,264.5 Z"/></g>
<g><path style="opacity:0.99" fill="#e58e3e" d="M 182.5,290.5 C 180.42,292.387 178.086,294.054 175.5,295.5C 171.284,297.545 166.951,297.878 162.5,296.5C 160.214,296.405 158.214,295.738 156.5,294.5C 156.167,293.833 155.833,293.167 155.5,292.5C 160.277,292.564 164.944,293.23 169.5,294.5C 172.553,294.769 175.22,293.936 177.5,292C 176.007,290.844 176.174,290.01 178,289.5C 179.44,290.148 180.94,290.481 182.5,290.5 Z"/></g>
<g><path style="opacity:0.635" fill="#5db47b" d="M 228.5,250.5 C 228.631,251.239 228.464,251.906 228,252.5C 218.676,258.163 215.009,266.496 217,277.5C 219.312,280.457 220.812,283.791 221.5,287.5C 224.391,288.678 227.391,289.345 230.5,289.5C 229.965,292.238 230.965,294.072 233.5,295C 238.167,295.667 242.833,295.667 247.5,295C 248.967,293.902 249.801,292.402 250,290.5C 251.622,291.099 253.122,291.766 254.5,292.5C 251.912,294.625 248.912,295.958 245.5,296.5C 241.833,296.5 238.167,296.5 234.5,296.5C 228.554,295.779 223.721,293.112 220,288.5C 211.693,275.124 213.193,262.957 224.5,252C 225.745,251.209 227.078,250.709 228.5,250.5 Z"/></g>
<g><path style="opacity:0.051" fill="#fee2af" d="M 175.5,295.5 C 176.167,295.5 176.833,295.5 177.5,295.5C 176.737,296.268 175.737,296.768 174.5,297C 177.036,297.186 179.369,297.686 181.5,298.5C 172.833,298.5 164.167,298.5 155.5,298.5C 157.833,297.833 160.167,297.167 162.5,296.5C 166.951,297.878 171.284,297.545 175.5,295.5 Z"/></g>
<g><path style="opacity:0.043" fill="#b8ffd2" d="M 234.5,297.5 C 234.5,297.167 234.5,296.833 234.5,296.5C 238.167,296.5 241.833,296.5 245.5,296.5C 247.833,297.167 250.167,297.833 252.5,298.5C 246.441,298.746 240.441,298.413 234.5,297.5 Z"/></g>
<g><path style="opacity:0.545" fill="#d99b5e" d="M 155.5,298.5 C 164.167,298.5 172.833,298.5 181.5,298.5C 183.786,298.595 185.786,299.262 187.5,300.5C 176.185,299.477 164.852,299.31 153.5,300C 150.469,302.015 147.136,303.181 143.5,303.5C 147.073,300.957 151.073,299.29 155.5,298.5 Z"/></g>
<g><path style="opacity:0.592" fill="#5ba873" d="M 234.5,297.5 C 240.441,298.413 246.441,298.746 252.5,298.5C 254.099,298.232 255.432,298.566 256.5,299.5C 245.654,299.828 234.987,299.494 224.5,298.5C 227.786,297.793 231.119,297.46 234.5,297.5 Z"/></g>
<g><path style="opacity:1" fill="#f18a2e" d="M 187.5,300.5 C 188.856,302.27 190.689,303.603 193,304.5C 193.483,305.448 193.649,306.448 193.5,307.5C 194.833,307.5 196.167,307.5 197.5,307.5C 198.52,312.128 200.353,316.462 203,320.5C 203.602,323.221 203.435,325.887 202.5,328.5C 193.519,327.525 184.519,327.358 175.5,328C 172.128,328.134 168.961,328.968 166,330.5C 163.589,328.847 162.422,329.513 162.5,332.5C 160.833,332.5 159.167,332.5 157.5,332.5C 157.371,334.216 157.038,335.883 156.5,337.5C 156.167,337.5 155.833,337.5 155.5,337.5C 154.448,337.351 153.448,337.517 152.5,338C 151.359,340.308 149.692,342.141 147.5,343.5C 146.548,345.045 146.215,346.712 146.5,348.5C 146.443,349.609 146.11,350.609 145.5,351.5C 143.799,352.211 142.799,353.545 142.5,355.5C 139.841,356.485 137.174,357.485 134.5,358.5C 132.519,358.563 130.852,357.896 129.5,356.5C 128.334,346.517 128.168,336.517 129,326.5C 132.209,323.036 134.042,319.036 134.5,314.5C 137.205,310.474 140.205,306.808 143.5,303.5C 147.136,303.181 150.469,302.015 153.5,300C 164.852,299.31 176.185,299.477 187.5,300.5 Z"/></g>
<g><path style="opacity:1" fill="#2ab45b" d="M 265.5,304.5 C 265.285,306.179 265.952,307.179 267.5,307.5C 266.067,309.558 265.4,311.892 265.5,314.5C 260.461,314.451 260.295,315.118 265,316.5C 266.342,315.098 267.176,315.431 267.5,317.5C 267.078,319.663 265.744,320.997 263.5,321.5C 264.167,323.167 264.833,324.833 265.5,326.5C 263.848,329.918 263.015,333.585 263,337.5C 260.283,342.571 258.616,341.904 258,335.5C 256.644,336.38 255.144,336.714 253.5,336.5C 253.671,334.007 252.671,332.174 250.5,331C 250.833,330.667 251.167,330.333 251.5,330C 242.213,328.483 232.879,327.149 223.5,326C 230.772,324.079 238.105,322.246 245.5,320.5C 243.807,319.772 242.307,318.772 241,317.5C 235.093,320.515 228.926,322.848 222.5,324.5C 221.708,322.535 221.041,320.535 220.5,318.5C 222.007,317.261 223.174,317.595 224,319.5C 226.5,316.5 229,313.5 231.5,310.5C 230.197,308.623 228.697,306.957 227,305.5C 226.506,303.866 226.34,302.199 226.5,300.5C 236.506,300.334 246.506,300.5 256.5,301C 259.327,302.664 262.327,303.83 265.5,304.5 Z"/></g>
<g><path style="opacity:0.894" fill="#e5a463" d="M 187.5,300.5 C 191.956,301.382 195.289,303.715 197.5,307.5C 196.167,307.5 194.833,307.5 193.5,307.5C 193.649,306.448 193.483,305.448 193,304.5C 190.689,303.603 188.856,302.27 187.5,300.5 Z"/></g>
<g><path style="opacity:0.227" fill="#e6b57e" d="M 143.5,303.5 C 140.205,306.808 137.205,310.474 134.5,314.5C 133.833,314.833 133.167,315.167 132.5,315.5C 134.755,310.243 138.422,306.243 143.5,303.5 Z"/></g>
<g><path style="opacity:0.945" fill="#64ba85" d="M 265.5,304.5 C 272.461,308.74 277.295,314.74 280,322.5C 281.576,333.775 281.909,345.108 281,356.5C 280.5,357.667 279.667,358.5 278.5,359C 274.5,359.667 270.5,359.667 266.5,359C 265.086,357.007 264.086,354.84 263.5,352.5C 265.512,353.341 266.845,354.841 267.5,357C 271.152,357.499 274.818,357.665 278.5,357.5C 279.57,346.86 279.737,336.193 279,325.5C 276.419,318.665 272.586,312.665 267.5,307.5C 265.952,307.179 265.285,306.179 265.5,304.5 Z"/></g>
<g><path style="opacity:0.331" fill="#6b89b4" d="M 104.5,278.5 C 104.5,278.833 104.5,279.167 104.5,279.5C 105.302,303.818 105.802,328.485 106,353.5C 108.032,357.408 110.866,360.575 114.5,363C 123.091,364.244 131.758,364.911 140.5,365C 141.406,366.699 141.739,368.533 141.5,370.5C 141.167,370.5 140.833,370.5 140.5,370.5C 139.609,369.739 138.942,368.739 138.5,367.5C 131.189,366.669 123.856,366.169 116.5,366C 110.944,363.645 106.778,359.812 104,354.5C 103.17,328.997 103.337,303.663 104.5,278.5 Z"/></g>
<g><path style="opacity:0.81" fill="#df9b4e" d="M 197.5,307.5 C 201.756,310.333 204.256,314.333 205,319.5C 207.105,322.776 206.938,325.776 204.5,328.5C 203.833,328.5 203.167,328.5 202.5,328.5C 203.435,325.887 203.602,323.221 203,320.5C 200.353,316.462 198.52,312.128 197.5,307.5 Z"/></g>
<g><path style="opacity:1" fill="#2fb25f" d="M 224.5,298.5 C 234.987,299.494 245.654,299.828 256.5,299.5C 259.992,300.41 262.992,302.076 265.5,304.5C 262.327,303.83 259.327,302.664 256.5,301C 246.506,300.5 236.506,300.334 226.5,300.5C 226.34,302.199 226.506,303.866 227,305.5C 228.697,306.957 230.197,308.623 231.5,310.5C 229,313.5 226.5,316.5 224,319.5C 223.174,317.595 222.007,317.261 220.5,318.5C 221.041,320.535 221.708,322.535 222.5,324.5C 228.926,322.848 235.093,320.515 241,317.5C 242.307,318.772 243.807,319.772 245.5,320.5C 238.105,322.246 230.772,324.079 223.5,326C 232.879,327.149 242.213,328.483 251.5,330C 251.167,330.333 250.833,330.667 250.5,331C 252.671,332.174 253.671,334.007 253.5,336.5C 255.144,336.714 256.644,336.38 258,335.5C 258.616,341.904 260.283,342.571 263,337.5C 263.015,333.585 263.848,329.918 265.5,326.5C 264.833,324.833 264.167,323.167 263.5,321.5C 265.744,320.997 267.078,319.663 267.5,317.5C 267.176,315.431 266.342,315.098 265,316.5C 260.295,315.118 260.461,314.451 265.5,314.5C 265.4,311.892 266.067,309.558 267.5,307.5C 272.586,312.665 276.419,318.665 279,325.5C 279.737,336.193 279.57,346.86 278.5,357.5C 274.818,357.665 271.152,357.499 267.5,357C 266.845,354.841 265.512,353.341 263.5,352.5C 261.053,346.703 257.387,341.703 252.5,337.5C 252.67,336.178 252.337,335.011 251.5,334C 249.221,333.527 247.221,332.527 245.5,331C 243.527,330.505 241.527,330.338 239.5,330.5C 236.873,329.908 234.206,329.575 231.5,329.5C 230.737,328.732 229.737,328.232 228.5,328C 222.509,327.501 216.509,327.334 210.5,327.5C 210.864,322.516 210.197,317.683 208.5,313C 208.648,311.744 208.982,310.577 209.5,309.5C 210.706,306.702 212.706,304.535 215.5,303C 218.527,301.487 221.527,299.987 224.5,298.5 Z"/></g>
<g><path style="opacity:0.367" fill="#74bb8e" d="M 209.5,309.5 C 208.982,310.577 208.648,311.744 208.5,313C 210.197,317.683 210.864,322.516 210.5,327.5C 216.509,327.334 222.509,327.501 228.5,328C 229.737,328.232 230.737,328.732 231.5,329.5C 224.492,329.666 217.492,329.5 210.5,329C 209.894,323.5 208.561,318.167 206.5,313C 206.974,311.271 207.974,310.105 209.5,309.5 Z"/></g>
<g><path style="opacity:0.808" fill="#e4a266" d="M 202.5,328.5 C 203.167,328.5 203.833,328.5 204.5,328.5C 193.674,329.33 182.674,329.83 171.5,330C 165.917,331.464 160.917,333.964 156.5,337.5C 157.038,335.883 157.371,334.216 157.5,332.5C 159.167,332.5 160.833,332.5 162.5,332.5C 162.422,329.513 163.589,328.847 166,330.5C 168.961,328.968 172.128,328.134 175.5,328C 184.519,327.358 193.519,327.525 202.5,328.5 Z"/></g>
<g><path style="opacity:0.698" fill="#68b583" d="M 239.5,330.5 C 241.527,330.338 243.527,330.505 245.5,331C 247.221,332.527 249.221,333.527 251.5,334C 252.337,335.011 252.67,336.178 252.5,337.5C 248.465,334.6 244.131,332.267 239.5,330.5 Z"/></g>
<g><path style="opacity:0.941" fill="#4a77a5" d="M 208.5,343.5 C 200.448,339.961 191.948,338.295 183,338.5C 176.23,338.385 169.73,339.385 163.5,341.5C 165.885,339.737 168.552,338.237 171.5,337C 180.167,336.333 188.833,336.333 197.5,337C 200.382,338.608 203.382,339.941 206.5,341C 207.381,341.708 208.047,342.542 208.5,343.5 Z"/></g>
<g><path style="opacity:0.92" fill="#4171a2" d="M 238.5,338.5 C 233.5,338.5 228.5,338.5 223.5,338.5C 219.355,337.943 215.689,338.943 212.5,341.5C 213.579,343.543 215.246,344.876 217.5,345.5C 218.362,346.766 219.029,348.099 219.5,349.5C 219.5,350.5 219.5,351.5 219.5,352.5C 217.018,349.571 214.518,346.571 212,343.5C 211.039,339.774 212.539,337.608 216.5,337C 223.167,336.333 229.833,336.333 236.5,337C 237.416,337.278 238.082,337.778 238.5,338.5 Z"/></g>
<g><path style="opacity:1" fill="#1460b1" d="M 208.5,343.5 C 213.335,347.578 216.668,352.244 218.5,357.5C 215.9,360.349 215.9,363.349 218.5,366.5C 216.914,368.173 216.247,370.173 216.5,372.5C 215.07,372.579 213.736,372.246 212.5,371.5C 210.17,375.42 209.003,375.086 209,370.5C 209.925,369.953 210.758,369.287 211.5,368.5C 209.922,367.702 208.256,367.202 206.5,367C 206.833,366.667 207.167,366.333 207.5,366C 204.301,364.321 203.967,362.321 206.5,360C 202.787,359.77 202.12,358.603 204.5,356.5C 201.346,354.974 198.013,354.307 194.5,354.5C 194.389,353.883 194.056,353.383 193.5,353C 186.144,352.169 178.811,352.335 171.5,353.5C 169.992,355.507 168.158,357.174 166,358.5C 163.662,362.519 162.996,366.853 164,371.5C 165.677,373.525 166.677,375.859 167,378.5C 167.278,377.584 167.778,376.918 168.5,376.5C 170.858,377.874 173.192,379.207 175.5,380.5C 179.95,380.964 184.283,381.964 188.5,383.5C 190.915,387.422 193.915,390.922 197.5,394C 192.98,397.504 187.813,399.004 182,398.5C 176.581,398.634 171.414,397.634 166.5,395.5C 166.027,394.094 165.027,393.427 163.5,393.5C 159.478,391.478 156.478,388.478 154.5,384.5C 153.69,380.371 153.023,376.204 152.5,372C 153.553,366.981 153.553,361.981 152.5,357C 155.204,353.961 157.037,350.461 158,346.5C 160.375,345.285 162.209,343.619 163.5,341.5C 169.73,339.385 176.23,338.385 183,338.5C 191.948,338.295 200.448,339.961 208.5,343.5 Z"/></g>
<g><path style="opacity:0.2" fill="#5582ae" d="M 245.5,341.5 C 249.884,343.61 252.884,346.943 254.5,351.5C 251.034,348.553 248.034,345.22 245.5,341.5 Z"/></g>
<g><path style="opacity:0.523" fill="#e29a5f" d="M 134.5,314.5 C 134.042,319.036 132.209,323.036 129,326.5C 128.168,336.517 128.334,346.517 129.5,356.5C 130.852,357.896 132.519,358.563 134.5,358.5C 137.174,357.485 139.841,356.485 142.5,355.5C 142.5,356.5 142.5,357.5 142.5,358.5C 139.335,359.322 136.002,359.989 132.5,360.5C 129.832,360.255 127.998,358.921 127,356.5C 125.832,344.338 126.499,332.338 129,320.5C 130.03,318.654 131.196,316.987 132.5,315.5C 133.167,315.167 133.833,314.833 134.5,314.5 Z"/></g>
<g><path style="opacity:0.831" fill="#e19e60" d="M 155.5,337.5 C 152.25,341.022 149.25,344.689 146.5,348.5C 146.215,346.712 146.548,345.045 147.5,343.5C 149.692,342.141 151.359,340.308 152.5,338C 153.448,337.517 154.448,337.351 155.5,337.5 Z"/></g>
<g><path style="opacity:1" fill="#0a5fb3" d="M 223.5,338.5 C 228.694,339.3 234.028,340.133 239.5,341C 242.101,343.544 243.101,346.71 242.5,350.5C 241.5,350.5 240.5,350.5 239.5,350.5C 239.146,346.16 237.146,345.327 233.5,348C 235.221,348.739 236.887,349.573 238.5,350.5C 238.291,351.086 237.957,351.586 237.5,352C 231.34,352.239 225.34,351.406 219.5,349.5C 219.029,348.099 218.362,346.766 217.5,345.5C 215.246,344.876 213.579,343.543 212.5,341.5C 215.689,338.943 219.355,337.943 223.5,338.5 Z"/></g>
<g><path style="opacity:0.239" fill="#92b7db" d="M 234.5,354.5 C 236.027,354.427 237.027,355.094 237.5,356.5C 235.973,356.573 234.973,355.906 234.5,354.5 Z"/></g>
<g><path style="opacity:1" fill="#2866af" d="M 223.5,338.5 C 228.5,338.5 233.5,338.5 238.5,338.5C 241.063,339.088 243.396,340.088 245.5,341.5C 248.034,345.22 251.034,348.553 254.5,351.5C 254.5,351.833 254.5,352.167 254.5,352.5C 254.5,353.5 254.5,354.5 254.5,355.5C 250.473,352.657 248.64,353.99 249,359.5C 248.667,359.167 248.333,358.833 248,358.5C 247.027,360.947 246.194,363.447 245.5,366C 245.982,368.725 247.315,370.892 249.5,372.5C 249.392,373.442 249.059,374.275 248.5,375C 244.834,375.299 243.834,376.966 245.5,380C 245.491,381.404 244.991,382.57 244,383.5C 243.101,381.673 241.767,380.34 240,379.5C 237.49,380.684 234.99,381.851 232.5,383C 236.498,384.245 236.331,385.078 232,385.5C 226.848,384.862 221.681,384.362 216.5,384C 213.681,383.088 211.014,381.922 208.5,380.5C 207.833,380.833 207.167,381.167 206.5,381.5C 207.246,382.736 207.579,384.07 207.5,385.5C 206.325,385.719 205.325,385.386 204.5,384.5C 203.917,382.998 203.084,381.665 202,380.5C 202.11,376.871 202.276,373.204 202.5,369.5C 202.833,369.5 203.167,369.5 203.5,369.5C 203.263,370.791 203.596,371.791 204.5,372.5C 206.092,376.584 209.092,379.084 213.5,380C 220.914,380.89 228.247,380.557 235.5,379C 243.99,372.218 244.657,364.718 237.5,356.5C 237.027,355.094 236.027,354.427 234.5,354.5C 229.398,353.879 224.398,353.213 219.5,352.5C 219.5,351.5 219.5,350.5 219.5,349.5C 225.34,351.406 231.34,352.239 237.5,352C 237.957,351.586 238.291,351.086 238.5,350.5C 236.887,349.573 235.221,348.739 233.5,348C 237.146,345.327 239.146,346.16 239.5,350.5C 240.5,350.5 241.5,350.5 242.5,350.5C 243.101,346.71 242.101,343.544 239.5,341C 234.028,340.133 228.694,339.3 223.5,338.5 Z"/></g>
<g><path style="opacity:0.125" fill="#f3cc9b" d="M 145.5,351.5 C 144.677,353.987 143.677,356.321 142.5,358.5C 142.5,357.5 142.5,356.5 142.5,355.5C 142.799,353.545 143.799,352.211 145.5,351.5 Z"/></g>
<g><path style="opacity:0.263" fill="#a1c0d6" d="M 190.5,360.5 C 190.027,361.906 189.027,362.573 187.5,362.5C 187.973,361.094 188.973,360.427 190.5,360.5 Z"/></g>
<g><path style="opacity:0.082" fill="#c0dcf1" d="M 287.5,364.5 C 281.021,365.491 274.354,365.824 267.5,365.5C 267.784,367.415 267.451,369.081 266.5,370.5C 266.5,368.5 266.5,366.5 266.5,364.5C 273.5,364.5 280.5,364.5 287.5,364.5 Z"/></g>
<g><path style="opacity:0.933" fill="#4575ac" d="M 194.5,354.5 C 188.217,353.416 181.884,353.249 175.5,354C 165.637,359.091 163.304,366.591 168.5,376.5C 167.778,376.918 167.278,377.584 167,378.5C 166.677,375.859 165.677,373.525 164,371.5C 162.996,366.853 163.662,362.519 166,358.5C 168.158,357.174 169.992,355.507 171.5,353.5C 178.811,352.335 186.144,352.169 193.5,353C 194.056,353.383 194.389,353.883 194.5,354.5 Z"/></g>
<g><path style="opacity:0.641" fill="#507eaf" d="M 294.5,362.5 C 294.586,363.496 294.252,364.329 293.5,365C 285.251,366.406 276.917,366.906 268.5,366.5C 268.167,371.833 267.833,377.167 267.5,382.5C 275.5,382.5 283.5,382.5 291.5,382.5C 283.016,383.493 274.349,383.826 265.5,383.5C 265.586,379.143 265.92,374.81 266.5,370.5C 267.451,369.081 267.784,367.415 267.5,365.5C 274.354,365.824 281.021,365.491 287.5,364.5C 289.833,363.833 292.167,363.167 294.5,362.5 Z"/></g>
<g><path style="opacity:0.447" fill="#6f94c5" d="M 316.5,363.5 C 316.833,363.5 317.167,363.5 317.5,363.5C 316.331,366.511 314.664,369.178 312.5,371.5C 312.67,370.178 312.337,369.011 311.5,368C 312.448,367.517 313.448,367.351 314.5,367.5C 314.527,365.801 315.194,364.467 316.5,363.5 Z"/></g>
<g><path style="opacity:0.722" fill="#477aae" d="M 254.5,352.5 C 256.136,353.749 257.303,355.416 258,357.5C 259.907,364.159 259.907,370.826 258,377.5C 256.643,380.898 254.81,383.898 252.5,386.5C 252.833,385.167 253.167,383.833 253.5,382.5C 253.586,381.504 253.252,380.671 252.5,380C 254.061,379.682 255.228,378.849 256,377.5C 257.641,369.982 257.141,362.648 254.5,355.5C 254.5,354.5 254.5,353.5 254.5,352.5 Z"/></g>
<g><path style="opacity:0.984" fill="#3c6faf" d="M 194.5,354.5 C 198.013,354.307 201.346,354.974 204.5,356.5C 202.12,358.603 202.787,359.77 206.5,360C 203.967,362.321 204.301,364.321 207.5,366C 207.167,366.333 206.833,366.667 206.5,367C 208.256,367.202 209.922,367.702 211.5,368.5C 210.758,369.287 209.925,369.953 209,370.5C 209.003,375.086 210.17,375.42 212.5,371.5C 213.736,372.246 215.07,372.579 216.5,372.5C 216.247,370.173 216.914,368.173 218.5,366.5C 215.9,363.349 215.9,360.349 218.5,357.5C 219.55,362.114 219.717,366.78 219,371.5C 214.478,377.682 209.644,378.015 204.5,372.5C 204.737,371.209 204.404,370.209 203.5,369.5C 203.363,362.714 200.363,357.714 194.5,354.5 Z"/></g>
<g><path style="opacity:0.998" fill="#3e6fae" d="M 163.5,341.5 C 162.209,343.619 160.375,345.285 158,346.5C 157.037,350.461 155.204,353.961 152.5,357C 153.553,361.981 153.553,366.981 152.5,372C 153.023,376.204 153.69,380.371 154.5,384.5C 145.872,371.012 146.705,358.012 157,345.5C 159.069,343.915 161.236,342.581 163.5,341.5 Z"/></g>
<g><path style="opacity:0.898" fill="#4775aa" d="M 199.5,361.5 C 195.151,359.536 191.651,360.536 189,364.5C 188.501,368.821 188.334,373.154 188.5,377.5C 186.448,372.712 186.115,367.712 187.5,362.5C 189.027,362.573 190.027,361.906 190.5,360.5C 193.786,357.733 196.786,358.066 199.5,361.5 Z"/></g>
<g><path style="opacity:1" fill="#4472ab" d="M 89.5,361.5 C 90.4959,361.414 91.3292,361.748 92,362.5C 91.734,365.901 93.234,367.567 96.5,367.5C 96.5,368.5 96.5,369.5 96.5,370.5C 97.552,370.351 98.552,370.517 99.5,371C 99.1667,371.333 98.8333,371.667 98.5,372C 102.534,374.158 105.868,376.992 108.5,380.5C 99.1667,377.167 92.8333,370.833 89.5,361.5 Z"/></g>
<g><path style="opacity:0.616" fill="#577fb1" d="M 312.5,371.5 C 307.118,378.027 300.118,381.693 291.5,382.5C 293.242,381.043 295.242,379.876 297.5,379C 299.134,378.506 300.801,378.34 302.5,378.5C 302.5,377.5 302.5,376.5 302.5,375.5C 303.873,375.657 305.207,375.49 306.5,375C 308.159,373.159 310.159,371.992 312.5,371.5 Z"/></g>
<g><path style="opacity:0.063" fill="#bfd8f0" d="M 175.5,380.5 C 179.833,380.5 184.167,380.5 188.5,380.5C 188.5,381.5 188.5,382.5 188.5,383.5C 184.283,381.964 179.95,380.964 175.5,380.5 Z"/></g>
<g><path style="opacity:0.639" fill="#30659e" d="M 140.5,370.5 C 140.833,370.5 141.167,370.5 141.5,370.5C 141.616,373.86 141.949,377.193 142.5,380.5C 133.895,382.471 124.895,383.138 115.5,382.5C 113.102,382.741 111.102,382.074 109.5,380.5C 119.806,381.371 130.14,381.704 140.5,381.5C 140.5,377.833 140.5,374.167 140.5,370.5 Z"/></g>
<g><path style="opacity:0.082" fill="#aed0f3" d="M 142.5,380.5 C 143.404,381.209 143.737,382.209 143.5,383.5C 133.985,383.827 124.652,383.494 115.5,382.5C 124.895,383.138 133.895,382.471 142.5,380.5 Z"/></g>
<g><path style="opacity:0.31" fill="#8db3ca" d="M 194.5,387.5 C 196.5,387.5 197.5,388.5 197.5,390.5C 196.167,389.833 195.167,388.833 194.5,387.5 Z"/></g>
<g><path style="opacity:1" fill="#0d5fb2" d="M 254.5,355.5 C 257.141,362.648 257.641,369.982 256,377.5C 255.228,378.849 254.061,379.682 252.5,380C 253.252,380.671 253.586,381.504 253.5,382.5C 252.883,382.389 252.383,382.056 252,381.5C 251.51,382.793 251.343,384.127 251.5,385.5C 249.278,385.822 247.444,385.155 246,383.5C 245.888,386.447 244.388,387.78 241.5,387.5C 241.261,389.467 241.594,391.301 242.5,393C 238.541,393.827 234.541,394.327 230.5,394.5C 222.541,394.184 214.541,394.017 206.5,394C 205.167,392.667 203.833,391.333 202.5,390C 202.833,389.667 203.167,389.333 203.5,389C 198.26,388.063 194.594,385.23 192.5,380.5C 191.378,379.37 190.044,378.703 188.5,378.5C 188.5,378.167 188.5,377.833 188.5,377.5C 188.334,373.154 188.501,368.821 189,364.5C 191.651,360.536 195.151,359.536 199.5,361.5C 201.585,363.684 202.585,366.351 202.5,369.5C 202.276,373.204 202.11,376.871 202,380.5C 203.084,381.665 203.917,382.998 204.5,384.5C 205.325,385.386 206.325,385.719 207.5,385.5C 207.579,384.07 207.246,382.736 206.5,381.5C 207.167,381.167 207.833,380.833 208.5,380.5C 211.014,381.922 213.681,383.088 216.5,384C 221.681,384.362 226.848,384.862 232,385.5C 236.331,385.078 236.498,384.245 232.5,383C 234.99,381.851 237.49,380.684 240,379.5C 241.767,380.34 243.101,381.673 244,383.5C 244.991,382.57 245.491,381.404 245.5,380C 243.834,376.966 244.834,375.299 248.5,375C 249.059,374.275 249.392,373.442 249.5,372.5C 247.315,370.892 245.982,368.725 245.5,366C 246.194,363.447 247.027,360.947 248,358.5C 248.333,358.833 248.667,359.167 249,359.5C 248.64,353.99 250.473,352.657 254.5,355.5 Z"/></g>
<g><path style="opacity:0.997" fill="#346aae" d="M 188.5,378.5 C 190.044,378.703 191.378,379.37 192.5,380.5C 194.594,385.23 198.26,388.063 203.5,389C 203.167,389.333 202.833,389.667 202.5,390C 203.833,391.333 205.167,392.667 206.5,394C 214.541,394.017 222.541,394.184 230.5,394.5C 234.541,394.327 238.541,393.827 242.5,393C 241.594,391.301 241.261,389.467 241.5,387.5C 244.388,387.78 245.888,386.447 246,383.5C 247.444,385.155 249.278,385.822 251.5,385.5C 251.343,384.127 251.51,382.793 252,381.5C 252.383,382.056 252.883,382.389 253.5,382.5C 253.167,383.833 252.833,385.167 252.5,386.5C 247.717,393.418 241.051,397.251 232.5,398C 222.581,399.246 212.915,398.246 203.5,395C 201.316,393.637 199.316,392.137 197.5,390.5C 197.5,388.5 196.5,387.5 194.5,387.5C 192.265,384.709 190.265,381.709 188.5,378.5 Z"/></g>
<g><path style="opacity:0.063" fill="#b8dbf4" d="M 163.5,393.5 C 165.027,393.427 166.027,394.094 166.5,395.5C 164.973,395.573 163.973,394.906 163.5,393.5 Z"/></g>
</svg>
